# xmcd
#
# Track frame offsets:
#	150
#	17182
#	30664
#	50572
#	73553
#	92685
#	106426
#	122448
#	137628
#	154729
#	179248
#	195307
#	214285
#
# Disc length: 3196 seconds
#
# Revision: 1
# Processed by: cddbd v1.5.2PL0 Copyright (c) Steve Scherf et al.
# Submitted via: audiograbber 1.83.01
#
DISCID=b70c7a0d
DTITLE=Sammy Eubanks - Riding Alone
DYEAR=2010
DGENRE=
TTITLE0=Set Me Free
TTITLE1=Who's Been Talkin'
TTITLE2=Travelin' With The Blues
TTITLE3=500 Gallons
TTITLE4=I Can't Listin To The Radio
TTITLE5=Hound Dog
TTITLE6=Wild Branch
TTITLE7=It Wasn't Me
TTITLE8=Riding Alone
TTITLE9=Rockabye
TTITLE10=Dancing Like a White Guy
TTITLE11=Looking At Love
TTITLE12=Love The Life You Live
EXTD=
EXTT0=
EXTT1=
EXTT2=
EXTT3=
EXTT4=
EXTT5=
EXTT6=
EXTT7=
EXTT8=
EXTT9=
EXTT10=
EXTT11=
EXTT12=
PLAYORDER=
